<svg width="69" height="25" viewBox="0 0 69 25" fill="none" xmlns="http://www.w3.org/2000/svg">
<path d="M0.75 19.5V15.457H2.625V4.88672H0.75V0.84375H10.1602V4.88672H8.57812V8.16797H13.5V4.88672H11.918V0.84375H21.3281V4.88672H19.4531V15.457H21.3281V19.5H11.918V15.457H13.5V12.0117H8.57812V15.457H10.1602V19.5H0.75ZM29.8242 19.7109C28.3555 19.7109 27.0859 19.4492 26.0156 18.9258C24.9531 18.4023 24.1328 17.6562 23.5547 16.6875C22.9844 15.7188 22.6992 14.5664 22.6992 13.2305C22.6992 11.8867 22.9844 10.7305 23.5547 9.76172C24.1328 8.79297 24.9531 8.04688 26.0156 7.52344C27.0859 6.99219 28.3555 6.72656 29.8242 6.72656C31.293 6.72656 32.5586 6.99219 33.6211 7.52344C34.6914 8.04688 35.5117 8.79297 36.082 9.76172C36.6602 10.7305 36.9492 11.8867 36.9492 13.2305C36.9492 14.5664 36.6602 15.7188 36.082 16.6875C35.5117 17.6562 34.6914 18.4023 33.6211 18.9258C32.5586 19.4492 31.293 19.7109 29.8242 19.7109ZM29.8242 16.3008C30.8789 16.3008 31.4062 15.2734 31.4062 13.2188C31.4062 11.1641 30.8789 10.1367 29.8242 10.1367C28.7695 10.1367 28.2422 11.1641 28.2422 13.2188C28.2422 15.2734 28.7695 16.3008 29.8242 16.3008ZM37.9922 24.1641V20.6484H39.6914V10.6055H37.9922V7.40625L45.1992 6.71484V8.23828C45.6836 7.77734 46.2461 7.41016 46.8867 7.13672C47.5273 6.85547 48.1797 6.71484 48.8438 6.71484C49.9844 6.71484 50.9609 6.98438 51.7734 7.52344C52.5938 8.0625 53.2227 8.82031 53.6602 9.79688C54.0977 10.7734 54.3164 11.918 54.3164 13.2305C54.3164 14.5352 54.1016 15.6758 53.6719 16.6523C53.2422 17.6211 52.6367 18.3711 51.8555 18.9023C51.082 19.4336 50.1758 19.6992 49.1367 19.6992C47.793 19.6992 46.5195 19.2109 45.3164 18.2344V20.6484H47.0156V24.1641H37.9922ZM47.0273 16.1953C47.582 16.1953 48.0117 15.9336 48.3164 15.4102C48.6211 14.8867 48.7734 14.1562 48.7734 13.2188C48.7734 12.2812 48.6211 11.5469 48.3164 11.0156C48.0117 10.4844 47.582 10.2188 47.0273 10.2188C46.7383 10.2188 46.4336 10.2656 46.1133 10.3594C45.793 10.4453 45.5273 10.5664 45.3164 10.7227V15.6562C45.5273 15.8047 45.793 15.9336 46.1133 16.043C46.4336 16.1445 46.7383 16.1953 47.0273 16.1953ZM63.0586 19.7109C60.7383 19.7109 58.918 19.1289 57.5977 17.9648C56.2852 16.793 55.6289 15.1719 55.6289 13.1016C55.6289 11.7969 55.9141 10.668 56.4844 9.71484C57.0625 8.76172 57.8672 8.02734 58.8984 7.51172C59.9297 6.98828 61.1289 6.72656 62.4961 6.72656C63.832 6.72656 64.9766 6.97266 65.9297 7.46484C66.8828 7.94922 67.6094 8.62891 68.1094 9.50391C68.6172 10.3711 68.8711 11.375 68.8711 12.5156C68.8711 12.7812 68.8594 13.0391 68.8359 13.2891C68.8125 13.5312 68.7852 13.7539 68.7539 13.957H61.2188C61.3516 14.7539 61.7109 15.3281 62.2969 15.6797C62.8906 16.0234 63.6133 16.1953 64.4648 16.1953C65.1836 16.1953 65.8672 16.0703 66.5156 15.8203C67.1719 15.5625 67.7266 15.2422 68.1797 14.8594L68.4961 15V18.3633C68.1211 18.6211 67.6367 18.8516 67.043 19.0547C66.4492 19.2578 65.8047 19.418 65.1094 19.5352C64.4219 19.6523 63.7383 19.7109 63.0586 19.7109ZM62.8008 9.60938C62.2773 9.60938 61.8828 9.8125 61.6172 10.2188C61.3516 10.625 61.2031 11.1914 61.1719 11.918H64.4297C64.3984 11.1914 64.25 10.625 63.9844 10.2188C63.7266 9.8125 63.332 9.60938 62.8008 9.60938Z" fill="#8E7ADA"/>
</svg>
